<?xml version="1.0" standalone="no"?>
<!DOCTYPE svg PUBLIC "-//W3C//DTD SVG 20010904//EN"
 "http://www.w3.org/TR/2001/REC-SVG-20010904/DTD/svg10.dtd">
<svg version="1.0" xmlns="http://www.w3.org/2000/svg"
 width="1084.000000pt" height="1084.000000pt" viewBox="0 0 1084.000000 1084.000000"
 preserveAspectRatio="xMidYMid meet">
<metadata>
Created by potrace 1.14, written by Peter Selinger 2001-2017
</metadata>
<g transform="translate(0.000000,1084.000000) scale(0.100000,-0.100000)"
fill="#000000" stroke="none">
<path d="M2700 10833 c-19 -2 -69 -10 -110 -18 -41 -9 -85 -17 -97 -20 -61
-11 -249 -83 -337 -128 -112 -57 -257 -152 -361 -236 -168 -135 -389 -377
-545 -596 -79 -111 -221 -335 -213 -335 3 0 -1 -8 -10 -18 -28 -31 -210 -398
-284 -572 -154 -362 -279 -742 -378 -1154 -43 -180 -108 -490 -120 -576 -3
-25 -8 -52 -10 -60 -2 -8 -7 -35 -10 -60 -8 -55 -14 -97 -20 -130 -2 -14 -7
-44 -10 -67 -9 -76 -16 -127 -20 -153 -3 -14 -7 -52 -10 -85 -3 -33 -7 -69 -9
-80 -2 -11 -7 -60 -10 -110 -4 -49 -9 -101 -11 -115 -3 -22 -9 -101 -20 -280
-22 -344 -22 -853 0 -1230 9 -156 15 -248 20 -290 4 -44 10 -100 20 -210 5
-52 9 -86 20 -170 7 -56 14 -112 20 -155 2 -22 7 -51 10 -65 2 -14 7 -45 10
-70 2 -25 6 -54 9 -65 2 -11 7 -40 11 -65 4 -25 9 -54 11 -65 2 -11 7 -33 9
-50 3 -16 17 -88 31 -160 14 -71 28 -141 30 -155 3 -14 12 -52 21 -85 8 -33
17 -69 19 -80 3 -11 9 -38 13 -60 51 -232 194 -685 307 -972 481 -1219 1197
-1971 1979 -2078 185 -26 452 -2 618 55 31 11 62 20 67 20 12 0 262 121 295
142 381 247 649 528 938 986 37 59 73 118 80 132 7 14 27 50 44 80 117 211
245 491 345 755 32 84 127 359 133 385 2 8 20 69 40 135 71 238 137 504 180
732 10 51 21 93 24 93 5 0 42 -164 57 -255 3 -16 12 -57 21 -90 8 -33 17 -68
18 -78 2 -9 11 -45 20 -80 9 -34 18 -71 21 -82 28 -139 211 -705 277 -858 8
-17 41 -95 73 -172 76 -182 220 -466 319 -630 64 -106 180 -283 217 -330 145
-184 204 -252 312 -360 72 -72 147 -144 166 -160 47 -41 216 -165 223 -165 3
0 26 -14 51 -31 77 -52 266 -136 386 -172 162 -49 276 -65 454 -61 509 9 1008
303 1439 849 48 61 91 115 95 120 32 42 190 288 235 365 166 286 336 664 461
1030 56 161 148 459 161 520 2 8 17 69 33 135 42 164 98 423 117 535 3 19 8
42 10 50 2 8 7 33 10 55 3 23 7 52 10 65 3 13 7 42 10 65 9 57 15 96 20 125 2
14 7 45 10 70 3 25 7 61 10 80 10 73 15 116 20 160 2 25 7 65 10 90 16 149 27
297 42 560 15 267 8 1091 -11 1280 -2 19 -7 76 -10 125 -4 50 -9 106 -11 125
-2 19 -6 65 -10 102 -3 37 -7 75 -9 85 -2 10 -7 50 -10 88 -4 39 -9 81 -11 95
-2 14 -6 41 -9 60 -9 64 -56 365 -61 390 -3 14 -8 41 -11 60 -3 19 -9 51 -14
70 -5 19 -12 53 -15 75 -4 22 -29 137 -57 255 -180 767 -441 1428 -776 1960
-57 91 -133 202 -159 235 -5 6 -31 39 -58 75 -77 102 -161 196 -280 314 -306
304 -638 486 -995 547 -93 16 -366 16 -440 1 -30 -6 -68 -14 -83 -16 -15 -3
-54 -12 -85 -21 -523 -150 -1004 -579 -1396 -1245 -37 -63 -71 -122 -76 -130
-61 -103 -221 -443 -298 -635 -42 -104 -142 -379 -147 -405 -2 -8 -8 -27 -14
-43 -24 -62 -138 -468 -156 -557 -2 -8 -10 -42 -18 -75 -9 -33 -18 -71 -21
-85 -2 -14 -11 -56 -20 -95 -15 -68 -20 -91 -32 -168 -10 -58 -20 -53 -32 16
-25 138 -75 362 -118 527 -20 74 -38 142 -39 150 -2 8 -4 15 -5 15 -1 0 -3 7
-5 15 -23 103 -138 444 -221 658 -249 641 -559 1146 -929 1518 -208 209 -379
334 -600 440 -99 47 -228 95 -295 110 -153 33 -361 48 -490 37z"/>
</g>
</svg>
