<?xml version="1.0" standalone="no"?>
<!DOCTYPE svg PUBLIC "-//W3C//DTD SVG 20010904//EN"
 "http://www.w3.org/TR/2001/REC-SVG-20010904/DTD/svg10.dtd">
<svg version="1.0" xmlns="http://www.w3.org/2000/svg"
 width="1084.000000pt" height="1084.000000pt" viewBox="0 0 1084.000000 1084.000000"
 preserveAspectRatio="xMidYMid meet">
<metadata>
Created by potrace 1.14, written by Peter Selinger 2001-2017
</metadata>
<g transform="translate(0.000000,1084.000000) scale(0.100000,-0.100000)"
fill="#000000" stroke="none">
<path d="M2778 10835 c-2 -1 -32 -5 -68 -9 -234 -22 -421 -72 -619 -167 -275
-131 -501 -332 -679 -603 -91 -138 -222 -426 -257 -566 -3 -8 -13 -49 -25 -90
-47 -174 -83 -408 -97 -620 -13 -201 -7 -603 11 -740 2 -14 7 -59 11 -100 4
-41 9 -84 11 -95 2 -11 6 -42 9 -70 3 -27 8 -62 11 -77 6 -38 19 -119 30 -183
4 -26 47 -233 59 -290 3 -11 7 -31 10 -45 20 -94 39 -168 84 -330 45 -165 105
-355 161 -516 70 -199 77 -224 64 -232 -23 -17 -275 -328 -385 -477 -24 -33
-48 -64 -52 -70 -105 -130 -371 -548 -505 -790 -192 -350 -383 -817 -448
-1095 -2 -8 -12 -51 -22 -95 -11 -44 -22 -96 -26 -115 -3 -19 -8 -45 -10 -56
-6 -29 -14 -80 -21 -134 -31 -238 -27 -555 10 -741 3 -13 8 -37 11 -54 13 -73
69 -246 109 -335 161 -364 414 -627 801 -835 131 -70 383 -160 563 -200 107
-24 119 -26 201 -40 25 -4 53 -9 62 -10 9 -2 48 -7 85 -10 37 -4 75 -8 83 -10
80 -21 653 -21 810 0 19 3 67 7 105 10 39 3 81 8 95 10 14 2 48 7 75 10 28 3
61 7 75 10 14 2 45 7 70 10 25 4 54 9 65 11 11 3 38 7 60 10 22 3 103 19 180
36 77 16 151 32 165 34 14 3 61 14 105 25 44 12 88 22 97 24 73 15 587 170
668 202 8 3 20 7 25 9 6 1 42 15 80 29 39 14 77 28 85 31 9 2 65 -38 135 -98
66 -55 138 -115 161 -132 23 -17 95 -72 160 -122 245 -187 604 -425 834 -553
176 -98 498 -252 660 -315 96 -38 184 -72 195 -77 26 -11 313 -97 345 -103 14
-2 57 -12 95 -21 70 -17 146 -31 220 -41 22 -3 51 -7 65 -10 140 -24 514 -24
655 1 412 73 701 214 959 472 205 204 369 477 467 778 23 70 76 266 84 310 3
17 7 44 10 60 3 17 10 53 15 80 5 28 12 77 16 110 4 33 8 69 10 79 24 132 24
652 -1 891 -12 118 -16 161 -20 185 -2 14 -6 48 -10 75 -3 28 -9 66 -11 85 -9
61 -24 153 -34 200 -5 25 -11 59 -14 75 -7 49 -55 259 -97 425 -56 219 -112
404 -192 635 -38 110 -71 207 -73 215 -3 10 40 70 111 155 174 210 358 457
509 685 75 113 140 210 144 215 4 6 14 23 22 37 8 15 51 89 94 165 188 327
334 646 437 956 38 117 75 243 85 297 3 14 11 50 19 80 7 30 18 84 24 120 6
36 13 77 16 92 34 180 39 547 10 723 -19 116 -24 140 -39 198 -149 570 -548
991 -1142 1206 -97 35 -228 77 -273 86 -9 2 -48 10 -86 19 -127 27 -273 49
-415 63 -169 16 -736 8 -880 -12 -14 -2 -50 -6 -80 -10 -97 -10 -190 -24 -292
-40 -16 -3 -43 -7 -60 -10 -28 -5 -115 -21 -203 -39 -174 -36 -458 -107 -645
-162 -114 -34 -530 -173 -551 -185 -14 -7 -42 12 -141 93 -298 249 -667 517
-928 675 -327 199 -647 361 -933 474 -130 51 -384 135 -440 145 -16 2 -38 9
-48 15 -11 5 -19 8 -19 5 0 -3 -21 1 -47 9 -27 8 -88 21 -138 30 -49 10 -97
18 -105 20 -8 1 -44 6 -80 10 -36 4 -78 9 -95 11 -33 5 -392 13 -397 9z"/>
</g>
</svg>
